# xmcd
#
# Track frame offsets: 
#        150
#        22872
#        41937
#        56610
#        71790
#        91335
#        110452
#        128810
#        145165
#        158062
#        173157
#
# Disc length: 2528 seconds
#
# Revision: 5
# Processed by: cddbd v1.5.2PL0 Copyright (c) Steve Scherf et al.
# Submitted via: ExactAudioCopy v1.1
#
DISCID=9309de0b
DTITLE=Etta James - Etta James Rocks The House
DYEAR=1963
DGENRE=R&B
TTITLE0=Something's Got A Hold On Me (live) (stereo)
TTITLE1=Baby, What You Want Me To Do (live) (stereo)
TTITLE2=What'd I Say (live) (stereo)
TTITLE3=Money (That's What I Want) (live) (stereo)
TTITLE4=Seven Day Fool (live) (stereo)
TTITLE5=Sweet Little Angel (live) (stereo)
TTITLE6=Ooh Poo Pah Doo (live) (stereo)
TTITLE7=Woke Up This Morning (live) (stereo)
TTITLE8=Ain't That Lovin' You Baby (live) (stereo)
TTITLE9=All I Could Do Is Cry (live) (stereo)
TTITLE10=I Just Want To Make Love To You (live) (stereo)
EXTD=
EXTT0=
EXTT1=
EXTT2=
EXTT3=
EXTT4=
EXTT5=
EXTT6=
EXTT7=
EXTT8=
EXTT9=
EXTT10=
PLAYORDER=
